<mxfile host="app.diagrams.net" modified="2021-10-13T09:35:27.647Z" agent="5.0 (Windows NT 10.0; Win64; x64) AppleWebKit/537.36 (KHTML, like Gecko) Chrome/94.0.4606.71 Safari/537.36 Edg/94.0.992.38" etag="XdMnlrAMTzKwLGlusbzH" version="15.5.2" type="github">
  <diagram id="jVc4l8Oz-UlPsiyHo6TG" name="Page-1">
    <mxGraphModel dx="868" dy="481" grid="1" gridSize="10" guides="1" tooltips="1" connect="1" arrows="1" fold="1" page="1" pageScale="1" pageWidth="827" pageHeight="1169" math="0" shadow="0">
      <root>
        <mxCell id="0" />
        <mxCell id="1" parent="0" />
        <mxCell id="YHpejb4D9jiC842Cafru-2" value="" style="edgeStyle=orthogonalEdgeStyle;rounded=0;orthogonalLoop=1;jettySize=auto;html=1;" edge="1" parent="1" source="WM2hKInb3e5Zk6Np24zZ-1" target="YHpejb4D9jiC842Cafru-1">
          <mxGeometry relative="1" as="geometry" />
        </mxCell>
        <mxCell id="WM2hKInb3e5Zk6Np24zZ-1" value="" style="rounded=0;whiteSpace=wrap;html=1;" parent="1" vertex="1">
          <mxGeometry x="350" y="220" width="120" height="60" as="geometry" />
        </mxCell>
        <mxCell id="YHpejb4D9jiC842Cafru-1" value="" style="rounded=0;whiteSpace=wrap;html=1;" vertex="1" parent="1">
          <mxGeometry x="550" y="220" width="120" height="60" as="geometry" />
        </mxCell>
      </root>
    </mxGraphModel>
  </diagram>
</mxfile>
